<svg width="34" height="27" viewBox="0 0 34 27" fill="none" xmlns="http://www.w3.org/2000/svg">
<path d="M19.7459 20.0606C19.5935 19.9726 19.4968 19.8521 19.4558 19.6991C19.4228 19.5322 19.4463 19.3795 19.5263 19.2409L27.4463 5.5231C27.5343 5.37068 27.6548 5.27397 27.8078 5.23298C27.9608 5.19198 28.1135 5.21549 28.2659 5.30349L30.7185 6.71949C30.8709 6.80749 30.9676 6.92798 31.0086 7.08098C31.0496 7.23397 31.0261 7.38668 30.9381 7.5391L23.0181 21.2569C22.9381 21.3955 22.8176 21.4922 22.6566 21.5471C22.5036 21.5881 22.3509 21.5646 22.1985 21.4766L19.7459 20.0606Z" fill="#FEA141"/>
<path d="M6 18.3577C6 18.1817 6.056 18.0377 6.168 17.9257C6.296 17.8137 6.44 17.7577 6.6 17.7577L22.44 17.7577C22.616 17.7577 22.76 17.8137 22.872 17.9257C22.984 18.0377 23.04 18.1817 23.04 18.3577L23.04 21.1897C23.04 21.3657 22.984 21.5097 22.872 21.6217C22.76 21.7337 22.616 21.7897 22.44 21.7897L6.6 21.7897C6.44 21.7897 6.296 21.7337 6.168 21.6217C6.056 21.5097 6 21.3657 6 21.1897L6 18.3577Z" fill="#FEA141"/>
</svg>
